<svg width="40" height="40" viewBox="0 0 40 40" fill="none" xmlns="http://www.w3.org/2000/svg">
<path d="M27.9452 15.9875C27.9585 16.1629 27.9585 16.3373 27.9585 16.5117C27.9585 21.8494 23.8337 28 16.2955 28C13.9731 28 11.8156 27.3374 10 26.1867C10.3297 26.2238 10.6473 26.2368 10.9902 26.2368C12.8353 26.2412 14.6282 25.6335 16.0798 24.5117C15.2243 24.4965 14.395 24.2185 13.7078 23.7166C13.0205 23.2146 12.5094 22.5139 12.2461 21.7121C12.4995 21.7492 12.7539 21.7742 13.0206 21.7742C13.388 21.7742 13.7574 21.7241 14.1003 21.6369C13.172 21.4523 12.3371 20.9566 11.7379 20.2342C11.1386 19.5119 10.8118 18.6073 10.8131 17.6745V17.6244C11.3597 17.9241 11.9937 18.1115 12.6654 18.1366C12.1027 17.7683 11.6413 17.2685 11.3223 16.6819C11.0034 16.0953 10.8369 15.44 10.8376 14.7746C10.8376 14.0248 11.0401 13.3372 11.3953 12.7378C12.4253 13.9857 13.7101 15.0067 15.1662 15.7345C16.6224 16.4624 18.2175 16.8808 19.8484 16.9628C19.7853 16.6621 19.7466 16.3503 19.7466 16.0376C19.7463 15.5073 19.8522 14.9821 20.0581 14.4922C20.264 14.0022 20.5659 13.557 20.9467 13.182C21.3274 12.807 21.7794 12.5096 22.2769 12.3068C22.7743 12.104 23.3075 11.9997 23.8459 12C25.0265 12 26.092 12.4872 26.841 13.275C27.7588 13.1002 28.6389 12.7703 29.4423 12.2997C29.1364 13.2327 28.4956 14.0239 27.6399 14.525C28.4539 14.4336 29.2494 14.2227 30 13.8995C29.4394 14.7045 28.7447 15.4104 27.9452 15.9875V15.9875Z" fill="#F82949"/>
</svg>
