<svg width="40" height="40" viewBox="0 0 40 40" fill="none" xmlns="http://www.w3.org/2000/svg">
<path d="M31.5118 14.5156C31.3752 14.033 31.1083 13.5929 30.7376 13.2391C30.3669 12.8853 29.9053 12.6302 29.3989 12.499C27.521 12.008 20.0083 12 20.0083 12C20.0083 12 12.4968 11.992 10.6178 12.4613C10.1116 12.5985 9.65102 12.8573 9.28017 13.2128C8.90933 13.5684 8.64069 14.0087 8.50005 14.4916C8.0048 16.2798 8 19.9886 8 19.9886C8 19.9886 7.99521 23.7157 8.48686 25.4856C8.76266 26.4642 9.57209 27.2372 10.601 27.501C12.498 27.992 19.9903 28 19.9903 28C19.9903 28 27.503 28.008 29.3809 27.5398C29.8875 27.4089 30.3495 27.1543 30.7211 26.8012C31.0927 26.4482 31.3611 26.0088 31.4998 25.5267C31.9962 23.7396 31.9998 20.032 31.9998 20.032C31.9998 20.032 32.0238 16.3037 31.5118 14.5156V14.5156ZM17.6052 23.4245L17.6112 16.5732L23.8552 20.0046L17.6052 23.4245V23.4245Z" fill="#F82949"/>
</svg>
